<svg version="1.0" xmlns="http://www.w3.org/2000/svg"
 width="616.000000pt" height="183.000000pt" viewBox="0 0 616.000000 183.000000"
 preserveAspectRatio="xMidYMid meet">

<g transform="translate(0.000000,183.000000) scale(0.100000,-0.100000)"
fill="#000000" stroke="none">
<path d="M1532 1809 c-69 -34 -122 -120 -122 -196 0 -78 19 -115 94 -188 39
-38 81 -86 93 -105 12 -19 35 -48 52 -64 42 -40 41 -74 -4 -122 -19 -20 -35
-39 -35 -41 0 -2 11 -1 24 3 22 5 24 3 19 -18 -15 -63 -118 -118 -221 -118
-45 0 -63 5 -80 20 -33 31 -33 75 -1 102 18 15 24 15 61 2 57 -20 74 -18 97
12 25 32 27 61 5 92 -24 34 -52 28 -71 -15 l-15 -38 -18 36 c-24 47 -45 62
-81 62 -38 0 -75 -35 -86 -81 -8 -34 -11 -36 -69 -48 -34 -7 -84 -24 -112 -38
-28 -14 -54 -26 -56 -26 -9 0 -26 75 -26 115 0 47 27 109 62 147 124 131 383
77 533 -110 l49 -62 20 20 c20 20 20 20 1 56 -48 89 -221 215 -317 230 -21 4
-38 10 -38 15 0 5 5 9 10 9 6 0 19 9 30 20 40 40 16 136 -45 176 -14 9 -28 15
-30 12 -3 -3 2 -24 10 -48 8 -23 15 -48 15 -55 0 -30 -58 -79 -141 -120 -48
-25 -104 -59 -123 -76 -77 -67 -113 -207 -82 -319 l15 -55 -31 -38 -30 -38 30
-38 30 -37 -15 -55 c-30 -113 5 -250 82 -318 19 -16 75 -51 124 -76 92 -47
141 -91 141 -125 0 -10 -9 -39 -20 -64 -10 -25 -15 -46 -9 -46 5 0 28 17 50
38 60 56 67 149 14 174 -35 16 -31 24 13 32 69 11 177 73 245 141 35 35 70 78
77 95 12 28 11 34 -7 51 -20 20 -20 20 -48 -21 -97 -140 -293 -232 -430 -201
-134 30 -212 160 -174 294 5 20 12 37 15 37 2 0 26 -11 52 -24 44 -22 91 -38
153 -50 21 -5 28 -13 33 -40 7 -37 55 -86 85 -86 26 0 59 28 80 68 l19 37 15
-38 c19 -43 47 -49 71 -15 22 32 20 63 -8 95 l-24 27 -55 -17 c-72 -23 -97
-11 -97 45 0 72 80 98 198 63 59 -18 122 -67 122 -96 0 -12 10 -23 26 -29 33
-13 30 -15 43 22 10 29 9 34 -20 64 -18 18 -56 46 -86 61 -29 15 -53 31 -53
34 0 3 18 13 40 23 21 9 60 36 85 59 45 41 46 43 34 75 -9 27 -15 32 -33 27
-15 -5 -12 -1 9 13 47 30 66 57 72 102 5 36 10 43 42 56 52 22 74 57 79 129
l4 60 -22 -35 c-31 -50 -60 -70 -103 -70 -21 0 -48 -5 -59 -11 -15 -8 -23 -8
-32 1 -8 8 -4 17 18 32 33 25 56 74 56 121 0 69 -77 167 -131 167 -28 0 -49
-28 -49 -67 0 -31 4 -36 40 -50 46 -19 58 -44 36 -78 -32 -49 -117 -20 -152
51 -26 53 -25 135 2 171 83 111 219 93 307 -40 43 -64 80 -97 112 -97 12 0 39
13 61 30 43 33 69 37 98 15 30 -22 1991 -22 2020 0 29 22 48 19 92 -15 62 -47
112 -35 155 39 29 48 87 109 121 127 64 33 152 8 200 -57 66 -88 -3 -255 -101
-247 -28 2 -39 9 -49 31 -16 34 -6 51 44 72 56 23 55 97 0 111 -54 13 -125
-61 -141 -146 -9 -48 18 -114 56 -138 27 -17 28 -20 14 -32 -12 -10 -19 -10
-27 -2 -7 7 -29 12 -51 12 -50 0 -71 12 -107 62 l-30 41 0 -41 c0 -75 37 -135
91 -147 25 -6 29 -12 29 -38 0 -41 31 -92 72 -118 18 -12 25 -19 16 -15 -20 6
-38 -20 -38 -53 0 -23 64 -78 129 -111 l44 -22 -39 -18 c-61 -28 -123 -77
-130 -104 -8 -35 11 -65 38 -60 15 3 9 -3 -15 -16 -45 -25 -77 -73 -77 -117 0
-26 -4 -32 -29 -38 -54 -12 -91 -72 -90 -148 0 -37 2 -40 12 -22 7 11 26 34
44 52 26 28 38 33 75 33 24 0 49 5 56 12 8 8 15 8 26 -1 13 -11 10 -17 -19
-43 -39 -33 -59 -91 -49 -135 19 -80 77 -143 131 -143 30 0 57 42 49 76 -5 18
-19 31 -46 41 -44 18 -53 33 -40 68 23 61 118 34 158 -45 78 -155 -74 -303
-222 -216 -28 16 -60 50 -91 95 -67 98 -102 111 -165 61 -42 -33 -67 -37 -96
-15 -29 22 -1990 22 -2020 0 -29 -22 -58 -18 -99 15 -64 51 -98 38 -165 -60
-59 -86 -99 -113 -175 -118 -62 -4 -63 -4 -108 39 -53 51 -67 98 -47 162 31
105 130 155 170 85 19 -34 6 -59 -35 -70 -34 -9 -45 -23 -45 -60 0 -59 58 -76
111 -31 86 73 90 207 6 262 -25 16 -26 19 -12 31 12 10 19 10 27 2 7 -7 31
-12 54 -12 47 0 85 -25 115 -74 l19 -31 0 48 c0 72 -37 130 -90 142 -24 5 -28
12 -33 52 -6 57 -45 98 -110 118 -26 8 -47 11 -47 6 0 -4 16 -22 35 -41 46
-45 45 -73 -6 -130 -22 -25 -46 -56 -54 -70 -7 -14 -39 -47 -70 -74 -101 -87
-129 -189 -81 -292 36 -77 123 -134 203 -134 73 1 159 55 205 128 32 51 52 57
95 27 21 -14 47 -25 58 -25 22 0 65 26 78 47 7 11 193 13 1004 13 l995 0 35
-30 c42 -37 72 -38 124 -3 l41 27 27 -30 c14 -17 38 -47 53 -66 32 -43 118
-88 166 -88 87 0 178 58 213 134 24 53 24 139 0 191 -17 38 -96 125 -113 125
-4 0 -25 26 -47 58 -21 31 -51 68 -65 81 -35 33 -33 63 9 110 40 44 43 51 17
44 -27 -7 -27 39 1 65 51 48 185 85 251 68 32 -8 60 -59 52 -92 -10 -37 -45
-49 -91 -30 -20 9 -45 16 -55 16 -28 0 -50 -33 -50 -77 0 -70 52 -86 80 -25
l16 33 17 -35 c19 -41 68 -70 103 -62 28 7 64 60 64 93 0 23 9 28 76 38 22 3
66 19 99 36 36 18 62 26 68 20 5 -5 12 -39 14 -75 7 -86 -14 -143 -70 -191
-108 -92 -279 -80 -425 30 -53 40 -124 118 -135 148 -3 8 -13 4 -28 -11 l-24
-22 20 -36 c48 -89 221 -215 317 -230 21 -4 38 -8 38 -10 0 -1 -14 -17 -31
-34 -28 -27 -31 -36 -26 -71 3 -22 13 -51 22 -65 15 -23 75 -67 82 -60 2 2 -4
19 -12 39 -37 88 -12 126 127 197 145 73 199 146 206 280 2 47 -2 92 -11 121
-14 45 -14 46 15 77 15 18 28 37 28 42 0 5 -13 24 -28 42 -27 31 -28 35 -16
73 19 62 17 157 -6 218 -30 79 -77 128 -172 177 -108 56 -135 75 -153 110 -14
27 -13 34 5 82 11 28 18 53 17 55 -2 1 -17 -6 -34 -17 -41 -25 -64 -60 -70
-110 -5 -36 -2 -43 30 -74 l36 -34 -39 -6 c-108 -17 -276 -139 -329 -239 -13
-24 -12 -29 4 -47 24 -26 28 -25 47 8 31 52 118 130 185 165 76 39 171 61 230
51 61 -9 134 -54 168 -102 28 -40 30 -50 30 -127 0 -47 -5 -89 -11 -95 -7 -7
-29 -2 -77 20 -36 18 -88 35 -114 38 -37 6 -48 12 -51 27 -11 70 -58 114 -104
96 -25 -10 -59 -43 -76 -76 l-11 -20 -6 20 c-17 52 -42 68 -70 45 -23 -19 -19
-93 5 -115 19 -17 26 -18 66 -7 63 17 92 15 104 -7 16 -32 12 -60 -15 -86 -20
-20 -34 -25 -78 -25 -29 0 -76 7 -103 15 -61 18 -127 71 -121 96 3 10 0 21 -7
24 -6 3 1 3 17 0 35 -7 34 0 -8 46 -43 48 -44 77 -4 115 18 16 45 49 60 74 16
24 50 60 76 80 145 109 135 323 -20 401 -32 17 -54 20 -112 17 -87 -4 -124
-26 -190 -110 -25 -32 -49 -58 -55 -58 -5 0 -26 12 -47 26 -45 30 -83 27 -123
-11 l-26 -25 -995 0 -996 0 -23 24 c-36 39 -74 43 -120 12 -22 -14 -44 -26
-49 -26 -6 0 -22 17 -37 38 -77 104 -122 132 -216 132 -44 0 -76 -6 -106 -21z
m-274 -859 c17 -13 32 -27 32 -32 0 -4 -18 -20 -41 -35 -55 -36 -118 -36 -188
2 -28 16 -51 31 -51 35 0 3 24 19 53 34 66 35 144 33 195 -4z m3840 4 c29 -14
52 -30 52 -35 0 -5 -23 -21 -52 -35 -73 -37 -134 -37 -187 0 -23 16 -41 32
-41 37 0 4 19 19 43 33 56 34 116 34 185 0z"/>
<path d="M1001 1642 c-18 -9 -41 -30 -50 -47 -9 -16 -17 -32 -18 -34 -1 -2
-26 6 -54 19 -43 18 -66 21 -133 18 -114 -5 -181 -42 -224 -123 -21 -38 -20
-137 1 -186 50 -114 183 -141 267 -54 29 30 34 43 38 93 2 34 -1 68 -7 80 -28
53 -123 65 -140 19 -14 -36 5 -57 48 -57 31 0 40 -4 44 -22 11 -42 -44 -98
-97 -98 -110 0 -146 183 -51 258 69 55 157 52 282 -8 35 -17 72 -29 81 -26 10
4 30 31 45 62 28 56 65 83 119 85 19 0 15 4 -17 20 -50 23 -91 24 -134 1z"/>
<path d="M5043 1649 c-46 -14 -48 -26 -5 -33 44 -6 74 -35 97 -89 24 -59 50
-65 123 -28 127 64 213 65 284 2 l43 -39 0 -77 c0 -75 -1 -77 -34 -107 -29
-26 -39 -29 -73 -25 -53 7 -90 42 -86 82 3 26 7 30 38 33 63 6 81 48 35 78
-22 14 -32 15 -65 5 -52 -15 -74 -56 -68 -123 6 -58 30 -95 84 -125 51 -30 97
-29 151 2 61 36 87 90 88 182 0 63 -3 76 -30 114 -19 27 -51 54 -85 72 -50 26
-62 28 -140 25 -61 -2 -97 -9 -126 -24 l-42 -20 -16 32 c-28 59 -100 86 -173
63z"/>
<path d="M268 1106 c-84 -81 -149 -134 -189 -156 l-62 -33 32 -13 c58 -25 126
-78 234 -186 102 -102 110 -108 149 -108 56 0 93 41 109 120 30 156 108 162
182 14 26 -51 77 -104 101 -104 8 0 25 9 39 20 29 23 42 72 33 117 -9 38 -70
101 -120 124 l-39 17 41 21 c59 30 110 84 117 125 14 71 -18 129 -70 129 -35
0 -71 -36 -105 -103 -37 -72 -70 -102 -106 -98 -33 4 -54 38 -79 132 -21 74
-51 106 -102 106 -35 -1 -49 -11 -165 -124z m206 77 c3 -10 10 -48 15 -84 12
-84 42 -144 83 -165 30 -15 31 -18 13 -24 -48 -19 -95 -99 -96 -167 0 -45 -20
-105 -35 -110 -6 -2 -25 20 -44 48 -36 56 -156 182 -205 217 l-30 21 25 18
c50 35 143 129 192 195 51 69 72 82 82 51z"/>
<path d="M380 1020 c-15 -36 -82 -90 -112 -90 -10 0 -18 -4 -18 -10 0 -5 7
-10 16 -10 30 0 83 -41 108 -82 l24 -41 15 34 c17 42 70 89 100 89 16 0 10 7
-23 23 -33 17 -52 36 -71 71 l-26 47 -13 -31z"/>
<path d="M5666 1198 c-25 -25 -36 -48 -45 -95 -28 -146 -115 -152 -181 -11
-28 61 -66 98 -99 98 -55 0 -84 -50 -70 -123 8 -46 67 -111 116 -129 39 -14
42 -24 10 -32 -41 -10 -116 -84 -127 -124 -13 -50 3 -107 37 -129 24 -16 27
-16 61 3 26 14 46 39 74 89 20 39 47 78 59 88 52 42 100 5 120 -91 20 -98 48
-131 112 -132 36 0 48 9 170 128 87 84 150 136 184 152 29 14 52 27 52 30 0 3
-23 16 -52 29 -35 17 -94 66 -184 153 -120 116 -136 128 -169 128 -27 0 -44
-8 -68 -32z m136 -104 c31 -39 82 -93 115 -119 32 -26 58 -51 58 -55 0 -4 -26
-29 -57 -56 -62 -54 -116 -113 -168 -187 -29 -41 -36 -46 -48 -33 -8 8 -20 51
-27 95 -15 92 -44 147 -87 166 l-30 12 37 21 c44 26 70 82 80 167 4 33 14 71
23 85 l15 24 16 -24 c9 -14 41 -57 73 -96z"/>
<path d="M5751 1014 c-13 -36 -67 -84 -94 -84 -10 0 -17 -4 -17 -10 0 -5 8
-10 19 -10 29 0 71 -39 91 -84 l18 -41 10 26 c14 34 77 89 113 96 31 6 30 23
-2 23 -22 0 -109 76 -109 96 0 28 -17 21 -29 -12z"/>
<path d="M625 648 c-71 -25 -118 -101 -119 -194 -1 -85 37 -147 117 -188 74
-38 175 -41 251 -8 27 12 51 22 55 22 4 0 12 -13 18 -30 14 -37 67 -70 113
-70 19 0 53 9 75 19 l40 19 -30 1 c-49 2 -92 35 -115 90 -12 27 -30 51 -40 54
-10 2 -53 -11 -96 -31 -66 -30 -91 -36 -150 -36 -63 -1 -75 2 -108 28 -21 16
-44 44 -52 62 -28 68 -9 157 40 189 60 40 166 -19 149 -83 -4 -16 -14 -22 -45
-24 -52 -4 -69 -37 -37 -69 29 -29 85 -20 118 17 20 24 23 35 19 90 -5 73 -26
104 -93 135 -45 21 -66 22 -110 7z"/>
<path d="M5420 638 c-56 -29 -81 -64 -87 -122 -7 -57 11 -102 48 -121 38 -20
62 -19 90 4 20 16 22 22 12 44 -9 20 -21 26 -50 29 -36 3 -38 5 -38 38 0 28 6
38 34 57 46 31 84 29 123 -6 32 -28 33 -32 33 -105 0 -72 -1 -76 -34 -110 -67
-69 -158 -72 -288 -10 -87 41 -102 37 -133 -35 -22 -50 -44 -68 -101 -81 l-34
-7 37 -17 c21 -9 53 -16 71 -16 39 0 96 35 113 68 17 34 18 34 65 13 69 -30
128 -35 200 -17 75 20 124 56 156 116 53 100 5 244 -94 286 -45 19 -72 18
-123 -8z"/>
</g>
</svg>
